#define bstack_width 12
#define bstack_height 12
static unsigned char bstack_bits[] = {
   0xfe, 0x07, 0xff, 0x0f, 0xff, 0x0f, 0xff, 0x0f, 0xff, 0x0f, 0x00, 0x00,
   0x00, 0x00, 0xff, 0x0f, 0xff, 0x0f, 0x93, 0x0c, 0x93, 0x0c, 0xfe, 0x07 };
