#define clock_width 12
#define clock_height 12
static unsigned char clock_bits[] = {
   0xfe, 0x07, 0xff, 0x0f, 0x0f, 0x0f, 0x87, 0x0e, 0x43, 0x0c, 0x23, 0x0c,
   0xe3, 0x0d, 0x03, 0x0c, 0x07, 0x0e, 0x0f, 0x0f, 0xff, 0x0f, 0xfe, 0x07 };
