#define cpu_width 12
#define cpu_height 12
static unsigned char cpu_bits[] = {
   0xfe, 0x07, 0xff, 0x0f, 0x93, 0x0c, 0xfb, 0x0d, 0x0f, 0x0f, 0x0b, 0x0d,
   0x0b, 0x0d, 0x0f, 0x0f, 0xfb, 0x0d, 0x93, 0x0c, 0xff, 0x0f, 0xfe, 0x07 };
