#define float_width 12
#define float_height 12
static unsigned char float_bits[] = {
   0x9e, 0x07, 0x9f, 0x0f, 0x9f, 0x0f, 0x9f, 0x0f, 0x9f, 0x0f, 0x80, 0x0f,
   0x80, 0x0f, 0xff, 0x0f, 0xff, 0x0f, 0xff, 0x0f, 0xff, 0x0f, 0xfe, 0x07 };
