#define mem_width 12
#define mem_height 12
static unsigned char mem_bits[] = {
   0xfe, 0x07, 0xff, 0x0f, 0x6b, 0x0d, 0xff, 0x0f, 0x03, 0x0c, 0x03, 0x0c,
   0x03, 0x0c, 0x03, 0x0c, 0xff, 0x0f, 0x6b, 0x0d, 0xff, 0x0f, 0xfe, 0x07 };
