#define phones_width 12
#define phones_height 12
static unsigned char phones_bits[] = {
   0xfe, 0x07, 0xff, 0x0f, 0x0f, 0x0f, 0xf7, 0x0e, 0xfb, 0x0d, 0xfb, 0x0d,
   0x6b, 0x0d, 0x63, 0x0c, 0x63, 0x0c, 0x67, 0x0e, 0xff, 0x0f, 0xfe, 0x07 };
