#define spkr_width 12
#define spkr_height 12
static unsigned char spkr_bits[] = {
   0xfe, 0x07, 0xff, 0x0f, 0xdf, 0x0f, 0xcf, 0x0e, 0xc3, 0x0d, 0x43, 0x0d,
   0x43, 0x0d, 0xc3, 0x0d, 0xcf, 0x0e, 0xdf, 0x0f, 0xff, 0x0f, 0xfe, 0x07 };
