#define tile_width 12
#define tile_height 12
static unsigned char tile_bits[] = {
   0x9e, 0x07, 0x9f, 0x0f, 0x9f, 0x09, 0x9f, 0x09, 0x9f, 0x0f, 0x9f, 0x09,
   0x9f, 0x09, 0x9f, 0x0f, 0x9f, 0x09, 0x9f, 0x09, 0x9f, 0x0f, 0x9e, 0x07 };
